<svg version="1" xmlns="http://www.w3.org/2000/svg" width="682.667" height="682.667" viewBox="0 0 512.000000 512.000000"><path d="M0 256v256h512V0H0v256zm441.8-149.8c.9.9 1.2 16.9 1.2 65.8v64.6l-5 4.9-5 4.9V115H80v248h209.6l2.9 3c2.8 2.9 2.8 3 1 5-1.8 2-2.8 2-110.7 2-73.2 0-109.6-.3-110.9-1-1.9-1.1-1.9-3.6-1.9-132.1 0-88.4.3-131.7 1-133 1.1-1.9 4.2-1.9 185.3-1.9 142 0 184.6.3 185.5 1.2zm21.9 154c9.5 9.5 17.3 17.7 17.3 18.3 0 .6-8.5 9.6-19 20-10.4 10.4-19 19.7-19 20.5 0 .8 8.6 10.1 19 20.5 10.5 10.4 19 19.4 19 20 0 .6-8 9-17.8 18.8L445.5 396 407 357.5 368.5 319l38-38c20.9-20.9 38.4-38 39-38 .5 0 8.7 7.8 18.2 17.2zm-118.4 76.7l31.7 31.6-38.5 38.5-38.5 38.5-18-17.3c-9.9-9.6-18-17.9-18-18.6 0-.6 8.8-9.9 19.5-20.6 10.7-10.7 19.5-19.9 19.5-20.4 0-.6-8.9-9.9-19.7-20.8L263.5 328l18-18 17.9-17.9 7.1 6.6c3.8 3.7 21.3 20.9 38.8 38.2z"/></svg>