<?xml version="1.0" standalone="no"?>
<!DOCTYPE svg PUBLIC "-//W3C//DTD SVG 20010904//EN"
 "http://www.w3.org/TR/2001/REC-SVG-20010904/DTD/svg10.dtd">
<svg version="1.0" xmlns="http://www.w3.org/2000/svg"
 width="256.000000pt" height="256.000000pt" viewBox="0 0 256.000000 256.000000"
 preserveAspectRatio="xMidYMid meet">
<metadata>
Created by potrace 1.14, written by Peter Selinger 2001-2017
</metadata>
<g transform="translate(0.000000,256.000000) scale(0.100000,-0.100000)"
fill="#000000" stroke="none">
<path d="M248 2240 c-124 -3 -181 -9 -190 -18 -10 -10 -12 -180 -13 -804 0
-724 1 -794 17 -812 16 -21 24 -21 650 -22 l634 -1 27 23 c15 13 27 26 27 29
0 3 -14 19 -30 35 l-31 30 -589 0 -590 0 2 712 3 712 1005 1 c553 0 1014 -1
1025 -3 20 -3 20 -10 20 -378 0 -206 3 -374 8 -374 4 0 26 18 48 40 22 22 46
40 52 40 9 0 12 93 11 367 -1 203 -4 378 -8 390 -4 13 -17 25 -29 28 -29 7
-1823 11 -2049 5z"/>
<path d="M2097 1152 l-218 -218 217 -217 c119 -119 219 -217 223 -217 3 0 49
43 101 95 l95 95 -113 113 c-61 62 -112 119 -112 127 0 9 50 65 110 125 61 60
110 113 110 118 0 8 -184 197 -192 197 -2 0 -101 -98 -221 -218z"/>
<path d="M1342 972 l-92 -97 115 -115 c63 -63 115 -120 115 -125 0 -5 -52 -62
-115 -125 l-115 -115 99 -99 100 -99 215 215 c119 119 216 219 216 223 0 12
-424 435 -435 434 -5 -1 -52 -44 -103 -97z"/>
</g>
</svg>
